<svg xmlns="http://www.w3.org/2000/svg" viewBox="0 0 2787.7 1446.86"><defs><style>.cls-1{fill:#e2e7fc;}</style></defs><g id="Layer_2" data-name="Layer 2"><g id="_ëîé_1" data-name="‘ëîé_1"><path class="cls-1" d="M2739.23,1440c-.92,2.15-160.15,4.72-161.29,6.87H2306.6l-79.42-.21H1516.07l-207.67-.22H760.92l-228.67-.21H118.73s-.68-1.73-2-5.17l-.23-.43a2.06,2.06,0,0,1-.23-.65c-.91-1.72-365.39-486.33,201.25-823.68,221.7-132-13.88-219.14,162.42-366.07,238.41-198.71,502.45,95,768.77-127.3,260.39-217.19,808.13-117.75,1032.6,75.3,29.44,25.31,176.75,115.3,71.24,295.36-66.62,113.68,130,141.9,228.68,148.52C2918.62,664.75,2741.51,1435.68,2739.23,1440Z"/></g></g></svg>