<?xml version="1.0" encoding="utf-8"?>
<!-- Generator: Adobe Illustrator 25.1.0, SVG Export Plug-In . SVG Version: 6.00 Build 0)  -->
<svg version="1.1" xmlns="http://www.w3.org/2000/svg" xmlns:xlink="http://www.w3.org/1999/xlink" x="0px" y="0px" width="294.8px"
	 height="158.7px" viewBox="0 0 294.8 158.7" style="enable-background:new 0 0 294.8 158.7;" xml:space="preserve">
<style type="text/css">
	.st0{fill:#41C8FF;}
	.st1{fill:#0032C8;}
	.st2{fill:#232323;}
	.st3{fill:none;}
</style>
<g id="Logo">
	<g>
		<rect x="246.1" y="22.7" class="st0" width="26.1" height="23.9"/>
		<circle class="st1" cx="227.2" cy="89.6" r="16.2"/>
		<path class="st0" d="M228.5,136.1c22.9,0,43.6-14.9,43.6-38.2V49.2h-26.1v40.3c0,10-7.7,18.1-17.5,18.8V136.1z"/>
		<path class="st1" d="M225.9,108.4c-9.8-0.7-17.5-8.8-17.5-18.8c0-10.4,8.4-18.9,18.9-18.9V49.2h-42.3v21.5h15.5
			c0,0-16.5,5.6-16.5,28.6c0,22.5,19.9,36.8,42,36.8V108.4z"/>
		<g>
			<g>
				<rect x="152.3" y="49.2" class="st2" width="6.5" height="34.5"/>
				<path class="st2" d="M67.7,77.9h-6.1V64.2H55c-6.1,0-11,4.9-11,11v2.7H33.2c-2.2,0-4-1.8-4-4v-3.1h-6.5v3c0,5.4,4.4,9.9,9.9,9.9
					h18v-9.2c0-2.5,2-4.5,4.5-4.5l0,13.7h19.2V49.2h-6.5V77.9z"/>
				<circle class="st2" cx="101.4" cy="57" r="3.5"/>
				
					<ellipse transform="matrix(0.9871 -0.1602 0.1602 0.9871 -12.7985 20.6403)" class="st2" cx="121.6" cy="89.7" rx="3.5" ry="3.5"/>
				<circle class="st2" cx="45.3" cy="89.7" r="3.5"/>
				<circle class="st2" cx="36.9" cy="89.7" r="3.5"/>
				<path class="st2" d="M141.1,77.9h-4.3C136,61.2,121.9,63,116.6,65v5.9c4.5-1.1,13-3.2,13.7,7h-19.7c0-1,0-2.3,0-3.9
					c0-5.8-2.8-10.3-9.1-10.3c-7.6,0-11.3,8-9.3,14.2c0,0,0,0,0,0h-5.7c-0.7,0-1.3-0.6-1.3-1.3V49.2h-6.5v28.7
					c0,3.2,2.6,5.8,5.8,5.8h63.2V49.2h-6.5V77.9z M104,77.9h-2.3c-1.7,0-3.6-0.7-3.6-4.1c0-1.7,0.5-3.8,3.1-3.8
					c2.5,0,2.8,2.4,2.8,4.5C104,76.6,104,77.9,104,77.9z"/>
			</g>
			<g>
				<path class="st2" d="M98.1,108c0,0.7,0,2.2,0,4.3H94v5.3h4.1c0,8,0,18,0,18h6.5c0,0,0-10.2,0-18h5.6v-5.3h-5.6
					c0-1.5,0-2.6,0-3.2c0-3.2,4.2-2.8,5.6-2.6v-5.4C100.8,100,98.1,104.6,98.1,108z"/>
				<path class="st2" d="M78.2,108c0,0.7,0,2.2,0,4.3h-4.1v5.3h4.1c0,8,0,18,0,18h6.5c0,0,0-10.2,0-18h5.6v-5.3h-5.6
					c0-1.5,0-2.6,0-3.2c0-3.2,4.2-2.8,5.6-2.6v-5.4C80.9,100,78.2,104.6,78.2,108z"/>
				<path class="st2" d="M63.7,125.9c0,2.9-2.2,4.2-4.1,4.2s-4.1-1.3-4.1-4.2v-13.5H49v13.7c0,6,4.5,10,10.6,10s10.6-4,10.6-10
					v-13.7h-6.5V125.9z"/>
				<path class="st2" d="M129.8,115.1c-0.6-0.9-2.6-3.2-6.5-3.2c-6.1,0-10.9,5.2-10.9,12c0,7,4.7,12.1,10.9,12.1
					c3.7,0,5.3-1.7,6.5-3.4v2.9h6.5v-23.2h-6.5V115.1z M124.6,130.4c-2.8,0-5.5-2.4-5.5-6.4c0-4.1,2.7-6.3,5.5-6.3
					c3.2,0,5.6,2.4,5.6,6.2C130.2,127.8,127.9,130.4,124.6,130.4z"/>
				<rect x="141.1" y="101.1" class="st2" width="6.5" height="34.5"/>
				<rect x="152.3" y="112.4" class="st2" width="6.5" height="23.2"/>
				<path class="st2" d="M38,125.5c0,2.4-1.8,4-4.4,4c-2.6,0-4.4-1.6-4.4-4v-3.1h-6.6v3.6c0,6.3,4.7,10.1,11,10.1
					c6.3,0,11-3.8,11-10.1v-24.9H38V125.5z"/>
				<circle class="st2" cx="155.6" cy="104.6" r="3.5"/>
			</g>
		</g>
	</g>
</g>
<g id="Clear_Space">
	<rect x="272.1" class="st3" width="22.7" height="22.7"/>
	<rect y="136.1" class="st3" width="22.7" height="22.7"/>
	<rect x="0" y="0" transform="matrix(-1 -4.487889e-11 4.487889e-11 -1 22.6772 22.6772)" class="st3" width="22.7" height="22.7"/>
	
		<rect x="272.1" y="136.1" transform="matrix(-1 -4.483892e-11 4.483892e-11 -1 566.9295 294.8032)" class="st3" width="22.7" height="22.7"/>
</g>
</svg>
